HIERARCHY
ROOT Hips
{
   OFFSET 0.00000 0.00000 0.00000
   CHANNELS 6 Xposition Yposition Zposition Zrotation Xrotation Yrotation
   JOINT Spine
   {
      OFFSET 0.000000 11.890501 0.000000
      CHANNELS 3 Zrotation Xrotation Yrotation
      JOINT Spine1
      {
         OFFSET -0.000000 25.657401 0.127660
         CHANNELS 3 Zrotation Xrotation Yrotation
         JOINT HEad
         {
            OFFSET 0.000000 8.734161 0.011340
            CHANNELS 3 Zrotation Xrotation Yrotation
            End Site
            {
               OFFSET -0.290000 12.774200 2.513950
            }
         }
         JOINT LeftShoulder1
         {
            OFFSET 8.990000 -0.362250 -0.220000
            CHANNELS 3 Zrotation Xrotation Yrotation
            JOINT LeftArm
            {
               OFFSET 10.282700 -0.003380 0.322120
               CHANNELS 3 Zrotation Xrotation Yrotation
               JOINT LeftForeArm
               {
                  OFFSET 32.766900 0.099140 -1.424340
                  CHANNELS 3 Zrotation Xrotation Yrotation
                  JOINT LeftHand
                  {
                     OFFSET 27.564301 0.085360 1.022160
                     CHANNELS 3 Zrotation Xrotation Yrotation
                     End Site
                     {
                        OFFSET 16.744301 -0.600000 1.502910
                     }
                  }
               }
            }
         }
         JOINT RightShoulder
         {
            OFFSET -8.990000 -0.362250 -0.220000
            CHANNELS 3 Zrotation Xrotation Yrotation
            JOINT RightArm
            {
               OFFSET -10.282700 -0.003380 0.322120
               CHANNELS 3 Zrotation Xrotation Yrotation
               JOINT RightForeArm
               {
                  OFFSET -32.897098 0.099140 -1.424340
                  CHANNELS 3 Zrotation Xrotation Yrotation
                  JOINT RightHand
                  {
                     OFFSET -27.492101 0.085360 1.022160
                     CHANNELS 3 Zrotation Xrotation Yrotation
                     End Site
                     {
                        OFFSET -16.631201 -0.600000 1.502910
                     }
                  }
               }
            }
         }
      }
   }
   JOINT LeftUpLeg
   {
      OFFSET 8.945800 -8.667070 0.101650
      CHANNELS 3 Zrotation Xrotation Yrotation
      JOINT LeftLeg
      {
         OFFSET 0.000000 -44.422697 1.372700
         CHANNELS 3 Zrotation Xrotation Yrotation
         JOINT LeftFoot
         {
            OFFSET -0.253550 -42.092399 -1.460590
            CHANNELS 3 Zrotation Xrotation Yrotation
            JOINT LeftToes
            {
               OFFSET -0.040000 -4.415090 8.499099
               CHANNELS 3 Zrotation Xrotation Yrotation
               End Site
               {
                  OFFSET 0.080000 -0.047450 9.779790
               }
            }
         }
      }
   }
   JOINT RightUpLeg
   {
      OFFSET -8.945800 -8.667070 0.101650
      CHANNELS 3 Zrotation Xrotation Yrotation
      JOINT RightLeg
      {
         OFFSET 0.000000 -44.422697 1.372700
         CHANNELS 3 Zrotation Xrotation Yrotation
         JOINT RightFoot
         {
            OFFSET 0.253550 -42.092399 -1.460590
            CHANNELS 3 Zrotation Xrotation Yrotation
            JOINT RightToes
            {
               OFFSET 0.040000 -4.415090 8.499099
               CHANNELS 3 Zrotation Xrotation Yrotation
               End Site
               {
                  OFFSET -0.080000 -0.137450 9.779790
               }
            }
         }
      }
   }
}
MOTION
Frames: 15
Frame Time: 0.016670
-26.728499 81.079940 -32.408640 39.425204 21.359690 120.740314 -1.757849 37.412518 16.535490 6.736118 27.104996 -22.897810 -19.849296 2.034513 17.415398 -7.297680 19.670670 -13.135799 16.581929 -27.454946 -16.830380 45.042809 15.946198 -32.137662 -66.363204 -114.914477 -110.152230 -152.381807 33.587363 124.714528 109.709394 19.614341 226.417329 -13.483085 34.195243 52.684128 2.985690 13.062766 29.690491 19.471172 7.436280 -70.404688 -25.649362 -4.038841 80.568618 0.931901 22.140359 19.462154 -38.345280 -0.533549 -27.230426 -26.026350 40.458943 6.699771 29.495533 4.503659 -13.046355 0.254736 18.611565 37.324245 38.635836 -36.533719 -35.474227
-26.672003 82.558087 -33.803510 38.362061 18.981565 120.710138 -1.751248 40.751627 15.435951 5.962177 26.324065 -20.116029 -20.590083 -0.567501 16.347697 -4.848534 18.415851 -14.919756 14.238971 -30.343955 -16.835330 45.062351 14.595373 -30.530614 -72.616782 -110.827353 -110.263767 -155.327982 31.427831 126.182854 109.268444 20.893571 231.674061 -14.334936 31.943961 53.869579 0.695190 11.672044 27.269066 20.531088 5.162309 -77.459768 -26.135632 -8.826361 87.213395 2.182357 22.258567 20.767434 -39.522640 -3.808147 -27.427738 -24.643119 38.043150 6.230430 30.214155 4.517840 -11.358944 -1.896772 17.845768 36.418169 37.354557 -33.595341 -36.773206
-26.827495 83.724784 -34.938492 36.452737 16.791836 120.094082 -0.583556 42.062368 14.764743 5.020562 26.704207 -17.958039 -21.154892 -3.159325 15.627316 -2.706816 17.568736 -16.342396 13.066757 -32.803295 -16.437690 44.364633 11.993384 -30.890333 -75.568605 -110.804943 -112.529422 -158.597785 30.047638 127.798153 108.819817 22.081928 236.324791 -15.359909 31.245404 54.785852 -1.158824 10.187469 26.442043 21.181882 2.610071 -84.448650 -26.544067 -12.599489 93.072556 2.855149 25.251284 21.157349 -40.638454 -5.557045 -26.070801 -23.499394 34.969664 5.246478 31.421449 4.418625 -10.261963 -3.711043 17.232011 35.304452 36.345376 -30.898055 -38.597648
-27.167115 84.777440 -35.817713 35.601849 15.327523 119.405818 0.607565 42.303347 13.276734 4.685567 28.302916 -16.782726 -21.737127 -6.011454 15.146798 -0.707773 16.597127 -17.826379 11.675375 -34.866176 -15.107707 43.398721 9.102929 -31.727072 -78.839166 -107.695281 -115.484784 -161.548235 29.074674 129.533923 108.026449 23.322142 240.076805 -16.477652 31.414960 55.801570 -2.449054 8.963636 26.240653 21.484208 1.216240 -90.315332 -25.229744 -15.676239 96.332059 3.585351 26.453248 21.175673 -42.142383 -8.225278 -25.323229 -22.542747 32.430701 4.907404 32.171274 5.247956 -9.134058 -5.139518 16.501706 34.443001 35.391899 -28.695571 -40.410657
-27.658846 85.578412 -36.542003 34.738492 13.816138 119.778965 1.573353 42.320422 11.794601 4.585718 29.659086 -15.909315 -21.996810 -8.289167 14.804642 0.992207 15.512497 -19.039979 11.091212 -36.829206 -14.473075 42.516019 6.973028 -32.313714 -81.345921 -106.868910 -117.683326 -164.081539 28.173374 131.135698 106.885692 24.816678 244.090416 -17.538760 32.039717 57.055316 -3.476637 7.786186 26.514636 22.298793 0.375438 -95.328793 -23.332440 -17.466571 97.529576 3.678596 29.060030 20.235045 -43.644359 -10.077320 -23.889550 -21.196437 29.280881 4.799818 32.949690 6.134744 -7.824669 -6.059880 16.055801 34.103606 34.610300 -26.714987 -42.215033
-28.315761 86.160678 -37.114412 33.944227 12.386149 119.784265 1.796582 43.197607 11.212894 4.085455 30.502874 -15.155208 -22.032157 -10.133275 14.613417 2.288812 15.159453 -20.571983 11.353131 -38.389304 -13.539924 41.856492 5.170035 -32.611005 -84.652285 -103.909143 -119.871268 -166.292922 26.802122 132.122114 105.395932 26.620080 248.860538 -19.127976 32.889406 57.596690 -4.119442 6.838830 26.850572 22.701112 -0.302893 -98.893387 -21.159485 -18.270927 97.204233 4.279596 31.542643 19.457717 -45.217874 -11.914748 -22.654684 -19.344194 26.880530 4.015749 33.378752 6.526425 -7.230913 -7.048733 15.987683 33.316092 33.929678 -24.912282 -44.302014
-29.148807 86.577481 -37.460129 33.608178 11.787082 120.000905 2.799621 43.650697 10.605553 4.397493 31.642948 -14.634857 -21.974097 -11.449376 14.577485 3.785557 15.085598 -21.852599 12.252349 -40.022784 -12.479316 41.318946 3.860922 -32.234562 -87.446058 -102.239059 -121.873989 -167.949215 24.723157 133.017552 103.227620 28.175386 254.273517 -20.885315 34.011726 57.996024 -4.657654 5.873314 27.975193 23.022990 -0.129156 -101.988030 -18.670307 -19.230835 96.621973 5.211340 32.780178 19.133069 -47.006851 -14.556069 -22.199664 -18.462150 25.470848 3.436955 33.051330 6.637778 -6.395535 -7.626144 15.475305 32.822389 33.222600 -23.195712 -45.874849
-30.108907 86.869048 -37.576980 34.091506 12.170367 120.484810 3.601650 44.025764 9.933416 4.584906 33.502915 -14.718462 -21.817511 -12.959460 14.701550 5.500921 15.744237 -23.045355 13.691018 -41.964631 -11.164753 40.840245 3.105868 -31.828470 -90.736645 -99.116707 -123.891053 -169.339992 22.916963 134.031548 101.202448 29.890697 259.392334 -22.105055 35.284477 59.204148 -5.270449 4.764686 30.131834 23.074722 0.588852 -104.407371 -16.621815 -20.576667 95.900050 6.156576 34.437103 18.799157 -48.846504 -16.379441 -21.257900 -17.642414 25.503226 3.407490 33.123112 8.693076 -4.898605 -11.168803 13.328559 32.242827 34.849398 -24.096798 -48.275647
-31.188008 87.002791 -37.484176 36.570028 15.058913 122.157373 4.631609 42.217577 8.770782 6.168587 38.220823 -15.075131 -21.145926 -14.191554 14.855419 7.234118 16.497675 -24.453833 15.600528 -43.197569 -10.288279 40.640643 1.570557 -31.857522 -91.581902 -96.854145 -127.728171 -169.905860 20.536868 136.166214 97.748388 31.348772 263.518534 -22.199223 36.639044 62.173600 -6.170845 3.335971 33.972179 22.600408 3.426692 -106.528855 -15.272090 -22.089528 94.997256 6.844689 36.902696 18.254121 -50.583804 -17.147250 -19.853656 -17.186375 26.642671 4.819786 31.528382 14.354015 -3.802112 -9.222534 12.372135 32.307027 30.741356 -25.078264 -51.195003
-32.198228 87.060584 -37.396955 37.673411 16.315406 122.642030 5.207610 41.842873 8.043295 7.343382 41.453869 -15.489790 -20.728820 -15.391077 15.160276 8.862129 17.059762 -25.093174 16.873584 -44.652775 -9.253333 40.675170 1.146774 -30.881543 -93.717258 -94.533261 -129.308103 -170.394314 18.739469 137.186685 94.751034 32.340065 268.010913 -22.403734 37.921193 64.265933 -7.111555 2.019477 36.793823 22.483443 5.064455 -108.324813 -13.517231 -22.990912 93.975596 7.533880 38.336978 18.085897 -52.353636 -18.671324 -18.945142 -16.683002 26.946496 4.943687 30.564909 18.058918 -2.323284 -9.581993 11.045700 32.539694 29.170047 -26.402631 -54.108694
-33.134148 87.143172 -37.357873 38.166120 16.495902 123.429154 5.038250 41.574743 7.976321 8.126932 43.265085 -15.730732 -19.863472 -16.735212 15.445645 10.114116 17.338442 -25.095860 18.313612 -45.829999 -8.580287 41.015224 0.234217 -29.905362 -94.772638 -93.451454 -130.870495 -171.480642 16.937857 138.097778 92.272468 32.933055 272.236587 -22.634470 39.429272 65.744642 -7.677691 1.251105 38.482081 22.516453 5.991298 -109.958922 -11.403960 -22.984186 92.976585 8.529415 38.361047 18.699542 -54.165289 -21.336488 -18.725782 -15.830222 26.145662 4.791398 29.488157 20.052771 -1.497553 -9.069102 10.006608 32.958910 27.086454 -25.762463 -55.550185
-33.960955 87.247008 -37.375237 38.155431 16.262785 123.834444 4.687601 41.822536 8.332362 8.459882 43.559347 -15.875334 -19.161508 -17.628083 15.823509 11.010980 18.223027 -25.180373 20.035790 -46.842110 -7.839241 41.102142 -0.269875 -29.374741 -96.136169 -92.277720 -131.791150 -172.521918 14.651338 137.921518 90.679839 33.954786 276.855161 -23.564626 39.339916 66.111245 -8.330298 0.673934 38.750651 22.475542 5.776867 -111.402742 -10.656049 -23.151790 91.983599 9.099843 39.449110 18.880256 -55.915641 -23.051660 -17.911683 -15.082361 24.364874 4.483209 28.050134 21.414976 -1.286176 -9.401393 9.633195 33.475973 26.026007 -24.352701 -56.310433
-34.743802 87.370442 -37.413525 37.979178 15.732137 124.187770 3.987675 42.726873 8.821535 8.574130 43.621543 -15.976849 -18.393295 -17.999066 16.220354 11.484102 19.621306 -25.356068 21.992082 -47.732763 -7.060298 41.193216 -0.238210 -28.965179 -97.479299 -91.497023 -132.087594 -174.074488 11.903140 137.242474 89.427004 34.669695 281.385680 -24.494838 38.705576 66.455842 -8.774077 0.452447 38.361177 22.528623 5.004134 -112.501064 -10.366398 -23.523066 91.019012 9.452967 40.932357 18.895761 -57.628799 -24.266754 -16.761513 -14.245909 22.286759 4.144647 26.621262 22.653417 -1.463693 -9.432828 9.466935 33.958201 24.945546 -22.589937 -56.716057
-35.536704 87.548665 -37.447864 37.816995 15.385392 124.531752 3.401060 43.321510 9.623568 9.061197 43.297860 -15.600060 -17.552200 -17.742178 16.604231 11.399563 20.667729 -25.182559 24.382992 -48.591721 -6.771137 41.353503 -0.248891 -28.167531 -98.875034 -91.272644 -131.979185 -175.552637 8.689570 136.720511 88.652980 35.121116 285.648046 -25.389492 37.102141 67.301344 -9.055026 0.479962 37.889269 22.594843 4.289585 -113.575336 -10.056625 -23.929457 89.896641 9.967043 42.267550 18.983179 -59.134630 -25.233017 -15.902087 -13.383785 20.182743 3.953632 25.027377 24.073323 -1.898076 -9.540198 9.507333 34.403420 24.159182 -20.775970 -56.982786
-36.353328 87.794455 -37.343800 37.750589 15.550958 124.519567 3.192881 42.383301 10.069250 9.265892 44.144506 -15.729208 -16.571453 -17.594393 16.971611 11.381751 21.580975 -24.711401 26.702519 -49.477293 -6.032740 41.452599 -0.952826 -27.939015 -99.477580 -91.680502 -132.834912 -176.943345 6.559474 136.617949 88.796673 36.004212 288.162566 -26.324505 35.406386 67.398586 -9.478521 0.580606 36.143756 22.256878 4.120566 -114.728818 -9.880138 -24.212015 88.699774 10.506377 43.820755 18.950228 -60.471264 -25.742431 -15.077750 -13.076555 18.656047 3.763652 23.523887 25.406185 -2.421536 -9.539794 9.735834 34.887572 23.395790 -19.006519 -57.101911
